<mxfile host="Electron" modified="2023-05-25T14:29:10.592Z" agent="Mozilla/5.0 (Windows NT 10.0; Win64; x64) AppleWebKit/537.36 (KHTML, like Gecko) draw.io/21.2.1 Chrome/112.0.5615.87 Electron/24.1.2 Safari/537.36" etag="5rCFVTFIgMPBXrG-NBCy" version="21.2.1" type="device">
  <diagram id="C5RBs43oDa-KdzZeNtuy" name="Page-1">
    <mxGraphModel dx="1687" dy="993" grid="1" gridSize="10" guides="1" tooltips="1" connect="1" arrows="1" fold="1" page="1" pageScale="1" pageWidth="827" pageHeight="1169" math="0" shadow="0">
      <root>
        <mxCell id="WIyWlLk6GJQsqaUBKTNV-0" />
        <mxCell id="WIyWlLk6GJQsqaUBKTNV-1" parent="WIyWlLk6GJQsqaUBKTNV-0" />
        <mxCell id="5CSAJulTpyOc8dR7FeEb-9" style="edgeStyle=orthogonalEdgeStyle;rounded=0;orthogonalLoop=1;jettySize=auto;html=1;exitX=1;exitY=0.5;exitDx=0;exitDy=0;entryX=0;entryY=0.5;entryDx=0;entryDy=0;" edge="1" parent="WIyWlLk6GJQsqaUBKTNV-1" source="5CSAJulTpyOc8dR7FeEb-0" target="5CSAJulTpyOc8dR7FeEb-8">
          <mxGeometry relative="1" as="geometry" />
        </mxCell>
        <mxCell id="5CSAJulTpyOc8dR7FeEb-10" style="edgeStyle=orthogonalEdgeStyle;rounded=0;orthogonalLoop=1;jettySize=auto;html=1;exitX=1;exitY=0.5;exitDx=0;exitDy=0;entryX=0;entryY=0.5;entryDx=0;entryDy=0;" edge="1" parent="WIyWlLk6GJQsqaUBKTNV-1" source="5CSAJulTpyOc8dR7FeEb-0" target="5CSAJulTpyOc8dR7FeEb-7">
          <mxGeometry relative="1" as="geometry" />
        </mxCell>
        <mxCell id="5CSAJulTpyOc8dR7FeEb-11" style="edgeStyle=orthogonalEdgeStyle;rounded=0;orthogonalLoop=1;jettySize=auto;html=1;entryX=0;entryY=0.5;entryDx=0;entryDy=0;" edge="1" parent="WIyWlLk6GJQsqaUBKTNV-1" source="5CSAJulTpyOc8dR7FeEb-0" target="5CSAJulTpyOc8dR7FeEb-5">
          <mxGeometry relative="1" as="geometry" />
        </mxCell>
        <mxCell id="5CSAJulTpyOc8dR7FeEb-12" style="edgeStyle=orthogonalEdgeStyle;rounded=0;orthogonalLoop=1;jettySize=auto;html=1;entryX=0;entryY=0.5;entryDx=0;entryDy=0;" edge="1" parent="WIyWlLk6GJQsqaUBKTNV-1" source="5CSAJulTpyOc8dR7FeEb-0" target="5CSAJulTpyOc8dR7FeEb-6">
          <mxGeometry relative="1" as="geometry" />
        </mxCell>
        <mxCell id="5CSAJulTpyOc8dR7FeEb-0" value="Launcher" style="rounded=0;whiteSpace=wrap;html=1;" vertex="1" parent="WIyWlLk6GJQsqaUBKTNV-1">
          <mxGeometry x="210" y="160" width="120" height="60" as="geometry" />
        </mxCell>
        <mxCell id="5CSAJulTpyOc8dR7FeEb-2" value="" style="edgeStyle=orthogonalEdgeStyle;rounded=0;orthogonalLoop=1;jettySize=auto;html=1;dashed=1;" edge="1" parent="WIyWlLk6GJQsqaUBKTNV-1" source="5CSAJulTpyOc8dR7FeEb-1" target="5CSAJulTpyOc8dR7FeEb-0">
          <mxGeometry relative="1" as="geometry" />
        </mxCell>
        <mxCell id="5CSAJulTpyOc8dR7FeEb-1" value="DefaultLauncher" style="rounded=0;whiteSpace=wrap;html=1;" vertex="1" parent="WIyWlLk6GJQsqaUBKTNV-1">
          <mxGeometry x="210" y="310" width="120" height="60" as="geometry" />
        </mxCell>
        <mxCell id="5CSAJulTpyOc8dR7FeEb-4" value="" style="edgeStyle=orthogonalEdgeStyle;rounded=0;orthogonalLoop=1;jettySize=auto;html=1;" edge="1" parent="WIyWlLk6GJQsqaUBKTNV-1" source="5CSAJulTpyOc8dR7FeEb-3" target="5CSAJulTpyOc8dR7FeEb-0">
          <mxGeometry relative="1" as="geometry" />
        </mxCell>
        <mxCell id="5CSAJulTpyOc8dR7FeEb-3" value="Client" style="rounded=0;whiteSpace=wrap;html=1;" vertex="1" parent="WIyWlLk6GJQsqaUBKTNV-1">
          <mxGeometry x="30" y="160" width="120" height="60" as="geometry" />
        </mxCell>
        <mxCell id="5CSAJulTpyOc8dR7FeEb-5" value="IntPlayerService" style="rounded=0;whiteSpace=wrap;html=1;" vertex="1" parent="WIyWlLk6GJQsqaUBKTNV-1">
          <mxGeometry x="470" y="1200" width="120" height="60" as="geometry" />
        </mxCell>
        <mxCell id="5CSAJulTpyOc8dR7FeEb-48" style="edgeStyle=orthogonalEdgeStyle;rounded=0;orthogonalLoop=1;jettySize=auto;html=1;entryX=0;entryY=0.5;entryDx=0;entryDy=0;" edge="1" parent="WIyWlLk6GJQsqaUBKTNV-1" source="5CSAJulTpyOc8dR7FeEb-6" target="5CSAJulTpyOc8dR7FeEb-15">
          <mxGeometry relative="1" as="geometry" />
        </mxCell>
        <mxCell id="5CSAJulTpyOc8dR7FeEb-6" value="IntPlayerRepository" style="rounded=0;whiteSpace=wrap;html=1;" vertex="1" parent="WIyWlLk6GJQsqaUBKTNV-1">
          <mxGeometry x="470" y="60" width="120" height="60" as="geometry" />
        </mxCell>
        <mxCell id="5CSAJulTpyOc8dR7FeEb-20" value="" style="edgeStyle=orthogonalEdgeStyle;rounded=0;orthogonalLoop=1;jettySize=auto;html=1;" edge="1" parent="WIyWlLk6GJQsqaUBKTNV-1" source="5CSAJulTpyOc8dR7FeEb-7" target="5CSAJulTpyOc8dR7FeEb-19">
          <mxGeometry relative="1" as="geometry">
            <Array as="points">
              <mxPoint x="610" y="730" />
              <mxPoint x="610" y="410" />
            </Array>
          </mxGeometry>
        </mxCell>
        <mxCell id="5CSAJulTpyOc8dR7FeEb-43" style="edgeStyle=orthogonalEdgeStyle;rounded=0;orthogonalLoop=1;jettySize=auto;html=1;entryX=0;entryY=0.5;entryDx=0;entryDy=0;exitX=1;exitY=0.5;exitDx=0;exitDy=0;" edge="1" parent="WIyWlLk6GJQsqaUBKTNV-1" source="5CSAJulTpyOc8dR7FeEb-7" target="5CSAJulTpyOc8dR7FeEb-28">
          <mxGeometry relative="1" as="geometry">
            <Array as="points">
              <mxPoint x="610" y="730" />
              <mxPoint x="610" y="620" />
            </Array>
          </mxGeometry>
        </mxCell>
        <mxCell id="5CSAJulTpyOc8dR7FeEb-44" style="edgeStyle=orthogonalEdgeStyle;rounded=0;orthogonalLoop=1;jettySize=auto;html=1;entryX=0;entryY=0.5;entryDx=0;entryDy=0;" edge="1" parent="WIyWlLk6GJQsqaUBKTNV-1" source="5CSAJulTpyOc8dR7FeEb-7" target="5CSAJulTpyOc8dR7FeEb-33">
          <mxGeometry relative="1" as="geometry">
            <Array as="points">
              <mxPoint x="610" y="730" />
              <mxPoint x="610" y="820" />
            </Array>
          </mxGeometry>
        </mxCell>
        <mxCell id="5CSAJulTpyOc8dR7FeEb-45" style="edgeStyle=orthogonalEdgeStyle;rounded=0;orthogonalLoop=1;jettySize=auto;html=1;exitX=1;exitY=0.5;exitDx=0;exitDy=0;entryX=0;entryY=0.5;entryDx=0;entryDy=0;" edge="1" parent="WIyWlLk6GJQsqaUBKTNV-1" source="5CSAJulTpyOc8dR7FeEb-7" target="5CSAJulTpyOc8dR7FeEb-38">
          <mxGeometry relative="1" as="geometry">
            <Array as="points">
              <mxPoint x="610" y="730" />
              <mxPoint x="610" y="1020" />
            </Array>
          </mxGeometry>
        </mxCell>
        <mxCell id="5CSAJulTpyOc8dR7FeEb-7" value="IntObjectService" style="rounded=0;whiteSpace=wrap;html=1;" vertex="1" parent="WIyWlLk6GJQsqaUBKTNV-1">
          <mxGeometry x="470" y="700" width="120" height="60" as="geometry" />
        </mxCell>
        <mxCell id="5CSAJulTpyOc8dR7FeEb-16" style="edgeStyle=orthogonalEdgeStyle;rounded=0;orthogonalLoop=1;jettySize=auto;html=1;entryX=0;entryY=0.5;entryDx=0;entryDy=0;" edge="1" parent="WIyWlLk6GJQsqaUBKTNV-1" source="5CSAJulTpyOc8dR7FeEb-8" target="5CSAJulTpyOc8dR7FeEb-15">
          <mxGeometry relative="1" as="geometry" />
        </mxCell>
        <mxCell id="5CSAJulTpyOc8dR7FeEb-8" value="EnemyGenerator" style="rounded=0;whiteSpace=wrap;html=1;" vertex="1" parent="WIyWlLk6GJQsqaUBKTNV-1">
          <mxGeometry x="470" y="250" width="120" height="60" as="geometry" />
        </mxCell>
        <mxCell id="5CSAJulTpyOc8dR7FeEb-14" value="" style="edgeStyle=orthogonalEdgeStyle;rounded=0;orthogonalLoop=1;jettySize=auto;html=1;dashed=1;" edge="1" parent="WIyWlLk6GJQsqaUBKTNV-1" source="5CSAJulTpyOc8dR7FeEb-13" target="5CSAJulTpyOc8dR7FeEb-8">
          <mxGeometry relative="1" as="geometry" />
        </mxCell>
        <mxCell id="5CSAJulTpyOc8dR7FeEb-13" value="DefaultEnemyGenerator" style="rounded=0;whiteSpace=wrap;html=1;" vertex="1" parent="WIyWlLk6GJQsqaUBKTNV-1">
          <mxGeometry x="470" y="350" width="120" height="60" as="geometry" />
        </mxCell>
        <mxCell id="5CSAJulTpyOc8dR7FeEb-15" value="IntObjectRepository" style="rounded=0;whiteSpace=wrap;html=1;" vertex="1" parent="WIyWlLk6GJQsqaUBKTNV-1">
          <mxGeometry x="690" y="60" width="120" height="60" as="geometry" />
        </mxCell>
        <mxCell id="5CSAJulTpyOc8dR7FeEb-18" value="" style="edgeStyle=orthogonalEdgeStyle;rounded=0;orthogonalLoop=1;jettySize=auto;html=1;dashed=1;" edge="1" parent="WIyWlLk6GJQsqaUBKTNV-1" source="5CSAJulTpyOc8dR7FeEb-17" target="5CSAJulTpyOc8dR7FeEb-15">
          <mxGeometry relative="1" as="geometry" />
        </mxCell>
        <mxCell id="5CSAJulTpyOc8dR7FeEb-17" value="DefaultIntObjectRepository" style="rounded=0;whiteSpace=wrap;html=1;" vertex="1" parent="WIyWlLk6GJQsqaUBKTNV-1">
          <mxGeometry x="690" y="160" width="120" height="60" as="geometry" />
        </mxCell>
        <mxCell id="5CSAJulTpyOc8dR7FeEb-19" value="Attackable" style="rounded=0;whiteSpace=wrap;html=1;" vertex="1" parent="WIyWlLk6GJQsqaUBKTNV-1">
          <mxGeometry x="690" y="380" width="120" height="60" as="geometry" />
        </mxCell>
        <mxCell id="5CSAJulTpyOc8dR7FeEb-25" style="edgeStyle=orthogonalEdgeStyle;rounded=0;orthogonalLoop=1;jettySize=auto;html=1;entryX=0.5;entryY=1;entryDx=0;entryDy=0;dashed=1;" edge="1" parent="WIyWlLk6GJQsqaUBKTNV-1" source="5CSAJulTpyOc8dR7FeEb-24" target="5CSAJulTpyOc8dR7FeEb-19">
          <mxGeometry relative="1" as="geometry" />
        </mxCell>
        <mxCell id="5CSAJulTpyOc8dR7FeEb-24" value="DefaultAttackable" style="rounded=0;whiteSpace=wrap;html=1;" vertex="1" parent="WIyWlLk6GJQsqaUBKTNV-1">
          <mxGeometry x="620" y="490" width="120" height="60" as="geometry" />
        </mxCell>
        <mxCell id="5CSAJulTpyOc8dR7FeEb-27" style="edgeStyle=orthogonalEdgeStyle;rounded=0;orthogonalLoop=1;jettySize=auto;html=1;entryX=0.5;entryY=1;entryDx=0;entryDy=0;dashed=1;" edge="1" parent="WIyWlLk6GJQsqaUBKTNV-1" source="5CSAJulTpyOc8dR7FeEb-26" target="5CSAJulTpyOc8dR7FeEb-19">
          <mxGeometry relative="1" as="geometry" />
        </mxCell>
        <mxCell id="5CSAJulTpyOc8dR7FeEb-26" value="EnhancedAttackable" style="rounded=0;whiteSpace=wrap;html=1;" vertex="1" parent="WIyWlLk6GJQsqaUBKTNV-1">
          <mxGeometry x="770" y="490" width="120" height="60" as="geometry" />
        </mxCell>
        <mxCell id="5CSAJulTpyOc8dR7FeEb-28" value="Avoidable" style="rounded=0;whiteSpace=wrap;html=1;" vertex="1" parent="WIyWlLk6GJQsqaUBKTNV-1">
          <mxGeometry x="690" y="590" width="120" height="60" as="geometry" />
        </mxCell>
        <mxCell id="5CSAJulTpyOc8dR7FeEb-29" style="edgeStyle=orthogonalEdgeStyle;rounded=0;orthogonalLoop=1;jettySize=auto;html=1;entryX=0.5;entryY=1;entryDx=0;entryDy=0;dashed=1;" edge="1" parent="WIyWlLk6GJQsqaUBKTNV-1" source="5CSAJulTpyOc8dR7FeEb-30" target="5CSAJulTpyOc8dR7FeEb-28">
          <mxGeometry relative="1" as="geometry" />
        </mxCell>
        <mxCell id="5CSAJulTpyOc8dR7FeEb-30" value="DefaultAvoidable" style="rounded=0;whiteSpace=wrap;html=1;" vertex="1" parent="WIyWlLk6GJQsqaUBKTNV-1">
          <mxGeometry x="620" y="700" width="120" height="60" as="geometry" />
        </mxCell>
        <mxCell id="5CSAJulTpyOc8dR7FeEb-31" style="edgeStyle=orthogonalEdgeStyle;rounded=0;orthogonalLoop=1;jettySize=auto;html=1;entryX=0.5;entryY=1;entryDx=0;entryDy=0;dashed=1;" edge="1" parent="WIyWlLk6GJQsqaUBKTNV-1" source="5CSAJulTpyOc8dR7FeEb-32" target="5CSAJulTpyOc8dR7FeEb-28">
          <mxGeometry relative="1" as="geometry" />
        </mxCell>
        <mxCell id="5CSAJulTpyOc8dR7FeEb-32" value="EnhancedAvoidable" style="rounded=0;whiteSpace=wrap;html=1;" vertex="1" parent="WIyWlLk6GJQsqaUBKTNV-1">
          <mxGeometry x="770" y="700" width="120" height="60" as="geometry" />
        </mxCell>
        <mxCell id="5CSAJulTpyOc8dR7FeEb-33" value="Deadable" style="rounded=0;whiteSpace=wrap;html=1;" vertex="1" parent="WIyWlLk6GJQsqaUBKTNV-1">
          <mxGeometry x="690" y="790" width="120" height="60" as="geometry" />
        </mxCell>
        <mxCell id="5CSAJulTpyOc8dR7FeEb-34" style="edgeStyle=orthogonalEdgeStyle;rounded=0;orthogonalLoop=1;jettySize=auto;html=1;entryX=0.5;entryY=1;entryDx=0;entryDy=0;dashed=1;" edge="1" parent="WIyWlLk6GJQsqaUBKTNV-1" source="5CSAJulTpyOc8dR7FeEb-35" target="5CSAJulTpyOc8dR7FeEb-33">
          <mxGeometry relative="1" as="geometry" />
        </mxCell>
        <mxCell id="5CSAJulTpyOc8dR7FeEb-35" value="DefaultDeadable" style="rounded=0;whiteSpace=wrap;html=1;" vertex="1" parent="WIyWlLk6GJQsqaUBKTNV-1">
          <mxGeometry x="620" y="900" width="120" height="60" as="geometry" />
        </mxCell>
        <mxCell id="5CSAJulTpyOc8dR7FeEb-36" style="edgeStyle=orthogonalEdgeStyle;rounded=0;orthogonalLoop=1;jettySize=auto;html=1;entryX=0.5;entryY=1;entryDx=0;entryDy=0;dashed=1;" edge="1" parent="WIyWlLk6GJQsqaUBKTNV-1" source="5CSAJulTpyOc8dR7FeEb-37" target="5CSAJulTpyOc8dR7FeEb-33">
          <mxGeometry relative="1" as="geometry" />
        </mxCell>
        <mxCell id="5CSAJulTpyOc8dR7FeEb-37" value="EnhancedDeadable" style="rounded=0;whiteSpace=wrap;html=1;" vertex="1" parent="WIyWlLk6GJQsqaUBKTNV-1">
          <mxGeometry x="770" y="900" width="120" height="60" as="geometry" />
        </mxCell>
        <mxCell id="5CSAJulTpyOc8dR7FeEb-38" value="Deffensible" style="rounded=0;whiteSpace=wrap;html=1;" vertex="1" parent="WIyWlLk6GJQsqaUBKTNV-1">
          <mxGeometry x="690" y="990" width="120" height="60" as="geometry" />
        </mxCell>
        <mxCell id="5CSAJulTpyOc8dR7FeEb-39" style="edgeStyle=orthogonalEdgeStyle;rounded=0;orthogonalLoop=1;jettySize=auto;html=1;entryX=0.5;entryY=1;entryDx=0;entryDy=0;dashed=1;" edge="1" parent="WIyWlLk6GJQsqaUBKTNV-1" source="5CSAJulTpyOc8dR7FeEb-40" target="5CSAJulTpyOc8dR7FeEb-38">
          <mxGeometry relative="1" as="geometry" />
        </mxCell>
        <mxCell id="5CSAJulTpyOc8dR7FeEb-40" value="DefaultDeffensible" style="rounded=0;whiteSpace=wrap;html=1;" vertex="1" parent="WIyWlLk6GJQsqaUBKTNV-1">
          <mxGeometry x="620" y="1100" width="120" height="60" as="geometry" />
        </mxCell>
        <mxCell id="5CSAJulTpyOc8dR7FeEb-41" style="edgeStyle=orthogonalEdgeStyle;rounded=0;orthogonalLoop=1;jettySize=auto;html=1;entryX=0.5;entryY=1;entryDx=0;entryDy=0;dashed=1;" edge="1" parent="WIyWlLk6GJQsqaUBKTNV-1" source="5CSAJulTpyOc8dR7FeEb-42" target="5CSAJulTpyOc8dR7FeEb-38">
          <mxGeometry relative="1" as="geometry" />
        </mxCell>
        <mxCell id="5CSAJulTpyOc8dR7FeEb-42" value="EnhancedDeffensible" style="rounded=0;whiteSpace=wrap;html=1;" vertex="1" parent="WIyWlLk6GJQsqaUBKTNV-1">
          <mxGeometry x="770" y="1100" width="120" height="60" as="geometry" />
        </mxCell>
        <mxCell id="5CSAJulTpyOc8dR7FeEb-47" value="" style="edgeStyle=orthogonalEdgeStyle;rounded=0;orthogonalLoop=1;jettySize=auto;html=1;dashed=1;" edge="1" parent="WIyWlLk6GJQsqaUBKTNV-1" source="5CSAJulTpyOc8dR7FeEb-46" target="5CSAJulTpyOc8dR7FeEb-5">
          <mxGeometry relative="1" as="geometry" />
        </mxCell>
        <mxCell id="5CSAJulTpyOc8dR7FeEb-46" value="DefaultIntPlayerService" style="rounded=0;whiteSpace=wrap;html=1;" vertex="1" parent="WIyWlLk6GJQsqaUBKTNV-1">
          <mxGeometry x="470" y="1310" width="120" height="60" as="geometry" />
        </mxCell>
        <mxCell id="5CSAJulTpyOc8dR7FeEb-50" value="" style="edgeStyle=orthogonalEdgeStyle;rounded=0;orthogonalLoop=1;jettySize=auto;html=1;dashed=1;" edge="1" parent="WIyWlLk6GJQsqaUBKTNV-1" source="5CSAJulTpyOc8dR7FeEb-49" target="5CSAJulTpyOc8dR7FeEb-6">
          <mxGeometry relative="1" as="geometry" />
        </mxCell>
        <mxCell id="5CSAJulTpyOc8dR7FeEb-49" value="IntPlayerRepository" style="rounded=0;whiteSpace=wrap;html=1;" vertex="1" parent="WIyWlLk6GJQsqaUBKTNV-1">
          <mxGeometry x="470" y="160" width="120" height="60" as="geometry" />
        </mxCell>
      </root>
    </mxGraphModel>
  </diagram>
</mxfile>
